
<svg width="317" height="88" viewBox="0 0 317 88" fill="none" xmlns="http://www.w3.org/2000/svg">
<path fill-rule="evenodd" clip-rule="evenodd" d="M244.67 1.77355C244.67 3.78363 247.746 4.64761 248.029 8.12116C247.392 7.94484 247.587 7.89194 247.074 7.4864C245.696 6.41083 244.211 6.18161 242.373 6.18161C240.393 6.18161 238.361 8.31511 237.495 9.60227C235.232 12.9877 234.26 19.9171 237.707 23.1615C238.343 23.761 238.767 23.6552 239.881 23.6375C243.239 23.6023 246.756 23.9725 249.584 24.5368C252.783 25.1715 262.84 27.6048 266.039 29.2799C265.42 30.1262 264.2 30.8315 263.423 31.6073C260.135 34.9222 257.908 37.2144 252.429 37.2144C247.498 37.2144 241.666 33.1589 235.992 33.1589C234.296 33.1589 232.44 33.2118 230.885 33.7055C229.983 33.9877 229.205 34.5519 228.392 34.7458C225.529 32.8239 224.504 27.0935 224.504 23.6375C224.504 19.6879 225.406 15.2093 227.915 12.2295C228.516 11.5242 230.107 10.237 231.044 10.237C233.447 10.237 236.735 12.1237 237.053 8.29748C235.303 7.83904 234.172 6.53426 231.397 6.53426C223.85 6.53426 219.909 16.3202 219.909 22.9322C219.909 27.3756 220.156 31.3781 222.578 35.0809C223.497 36.4914 223.603 36.0859 222.083 39.8945C221.022 42.5746 218.725 48.5519 218.495 51.3025C220.404 50.3856 222.666 50.4209 224.451 46.8416C225.724 44.3025 226.095 40.97 226.095 37.373L232.086 37.7433C236.028 38.1841 240.128 38.2194 243.999 38.7307C247.816 39.2244 251.422 39.7534 255.098 40.5292C256.229 40.7761 256.459 40.9877 257.608 40.5998C261.337 39.3479 263.352 34.1111 267.452 34.0229C268.089 35.3277 268.425 35.5746 269.644 36.4209C270.811 37.2144 271.164 37.6552 271.164 39.4889C269.043 38.9952 266.905 39.4008 265.367 40.9348C264.483 41.8164 263.582 42.4335 262.504 43.0154C262.504 46.1715 261.143 51.2673 263.599 53.9121C264.801 55.1992 265.685 55.4461 267.629 55.8869C267.629 54.1942 267.17 52.8365 266.869 51.3554C265.791 45.9247 266.392 47.8466 266.392 44.2496C267.081 44.0909 267.824 43.7207 268.619 43.4738C270.263 42.9801 275.052 42.3982 275.052 40.3705C275.052 37.1438 273.656 35.363 272.012 33.7055C270.616 32.295 267.859 30.3554 267.806 28.028C269.626 28.028 274.504 26.1942 275.936 25.5594C281.839 22.9146 286.505 18.4713 290.04 13.1816C290.535 12.4587 291.825 10.4839 292.02 9.69043C295.36 11.9297 299.514 12.4763 302.589 14.3101C303.49 14.8567 305.169 15.562 305.275 16.7433C304.586 16.902 304.515 17.1136 303.72 17.3076C303.278 17.4134 302.5 17.5897 301.917 17.6249C300.574 17.6955 299.036 17.6249 297.675 17.6249C295.272 17.6249 295.82 17.4134 294.529 18.7181C290.712 22.5972 288.379 29.4209 287.265 35.0985C286.929 36.8617 286.258 36.0506 284.013 38.2018C282.635 39.5242 281.15 41.3403 280.16 42.9977C278.517 45.766 277.173 48.693 276.413 51.9549C275.424 56.2219 275.971 62.4814 279.807 65.038C279.807 59.3957 280.408 51.4965 283.236 46.771C291.313 33.4587 289.492 45.7131 293.062 28.8919C293.646 26.5469 294.476 24.0254 296.527 22.6501C298.1 21.6098 305.699 22.8441 308.368 16.4788C308.846 15.3327 309.323 13.305 309.323 11.7887C302.819 11.7887 298.541 7.20428 293.416 7.20428C293.168 6.18161 293.416 5.14131 293.416 4.03048C293.416 1.82645 292.232 2.44358 290.765 2.44358C289.952 5.8995 288.432 8.65013 286.417 11.3302C283.518 15.1917 279.701 18.4008 275.388 20.6048C268.018 24.3781 259.446 24.3957 251.988 20.6577C250.202 19.7584 250.803 19.7055 248.948 20.499C246.296 21.6275 244.635 21.6098 241.878 21.2395C240.446 21.0456 240.641 21.1338 240.287 19.829C239.934 18.4889 239.333 16.3025 239.333 14.7861C239.333 11.7887 240.994 10.0783 244.069 10.766C246.632 11.3479 244.67 16.7257 247.463 16.7257C249.672 16.7257 249.937 16.1615 250.803 14.0632C252.129 10.8542 252.182 5.74081 250.273 2.83149C248.912 0.733249 244.67 -0.99471 244.67 1.77355Z" fill="#231F20"/>
<path fill-rule="evenodd" clip-rule="evenodd" d="M213.564 62.781C218.265 62.781 220.616 59.5543 223.85 56.2923C233.447 46.6828 238.856 53.7886 244.317 53.7886L248.029 53.6122C247.481 51.3024 242.62 48.8339 239.722 48.1462C230.708 45.9951 217.753 51.6551 214.359 60.0656C213.847 61.3352 213.741 62.4107 213.564 62.781Z" fill="#231F20"/>
<path fill-rule="evenodd" clip-rule="evenodd" d="M248.029 60.6653C248.029 62.7459 248.824 65.1792 250.503 66.3077C251.899 60.348 254.71 55.8341 258.757 51.62C259.34 51.0205 259.941 50.5797 260.401 49.9097C258.262 49.9097 257.113 50.0507 255.523 50.6855C251.917 52.1313 248.029 56.3278 248.029 60.6653Z" fill="#231F20"/>
<path fill-rule="evenodd" clip-rule="evenodd" d="M271.359 65.0733C271.023 63.6627 269.043 60.6476 268.071 59.3605C267.753 58.9373 267.771 58.9549 267.417 58.6023C267.046 58.2144 267.011 58.0733 266.71 57.7207L265.102 56.3277C264.466 55.834 264.024 55.5519 263.299 55.1287C262.469 54.635 260.083 53.4713 258.987 53.436C259.146 55.4108 261.673 59.3781 263.352 61.0708C264.43 62.1464 265.35 62.9574 266.746 63.6804C267.647 64.1212 270.104 65.0381 271.359 65.0733Z" fill="#231F20"/>
<path fill-rule="evenodd" clip-rule="evenodd" d="M233.889 65.4259C235.074 65.4259 234.968 65.5317 235.834 65.0732C235.71 64.6501 234.968 63.6803 234.367 62.1287C233.235 59.2193 232.228 54.8289 228.234 54.4939C228.234 58.0027 228.322 60.2596 230.107 62.8516C230.991 64.1387 232.193 65.4259 233.889 65.4259Z" fill="#231F20"/>
<path fill-rule="evenodd" clip-rule="evenodd" d="M309.853 6.88701H310.913V2.65527L311.391 3.41346C311.585 3.80137 311.656 3.96006 311.85 4.3656C312.469 5.61749 312.38 6.0054 313.388 6.0054C313.971 6.0054 314.554 4.3656 314.979 3.53688L315.509 2.65527V6.88701H316.569V0.363081C314.731 0.363081 315.385 0.504139 314.448 2.12631C314.077 2.7787 313.6 3.41346 313.388 4.24217H313.034C312.858 3.44872 312.398 2.99029 312.027 2.24973C311.073 0.327817 311.479 0.363081 309.853 0.363081V6.88701V6.88701Z" fill="#262223"/>
<path fill-rule="evenodd" clip-rule="evenodd" d="M304.021 1.24465H305.965V6.88697H307.202V1.24465H308.969V0.363037H304.021V1.24465Z" fill="#262223"/>
<path d="M30.0934 51.093C30.0934 54.8937 28.5948 57.8445 25.5975 59.9457C22.6621 62.0159 18.5679 63.0511 13.3151 63.0511C12.11 63.0511 10.9204 63.0047 9.74619 62.912C8.60291 62.8193 7.47509 62.6957 6.36271 62.5412C5.21944 62.3867 4.18431 62.2013 3.25733 61.9851C2.36125 61.7379 1.55787 61.4752 0.847186 61.1971L1.58877 52.4835C1.89776 52.638 2.39215 52.8388 3.07194 53.086C3.75172 53.3023 4.63235 53.5959 5.71383 53.9667C7.87678 54.7083 10.1942 55.0791 12.6662 55.0791C14.3965 55.0791 15.8179 54.8164 16.9303 54.2911C17.9809 53.7967 18.5061 52.9006 18.5061 51.6029C18.5061 50.5523 17.9654 49.7026 16.8839 49.0537C16.3277 48.7447 15.5553 48.4202 14.5665 48.0804C13.6086 47.7405 12.4344 47.416 11.044 47.107C9.56079 46.7671 8.20122 46.3345 6.96525 45.8093C5.72928 45.284 4.60145 44.6196 3.58177 43.8163C1.57332 42.2404 0.569092 39.8148 0.569092 36.5395C0.569092 32.8933 2.08316 30.0661 5.11129 28.0576C8.13942 26.0491 11.94 25.0449 16.5131 25.0449C18.5525 25.0449 20.6382 25.2303 22.7702 25.6011C23.8208 25.7865 24.7787 25.9719 25.6439 26.1573C26.5091 26.3427 27.297 26.559 28.0077 26.8062L27.3124 35.0563C26.1383 34.4383 24.686 33.9285 22.9556 33.5268C21.1326 33.156 19.3868 32.9706 17.7182 32.9706C15.6789 32.9706 14.1802 33.2178 13.2224 33.7122C12.2645 34.2066 11.7855 34.979 11.7855 36.0296C11.7855 36.8948 12.3108 37.5746 13.3614 38.069C13.9176 38.3471 14.7364 38.6561 15.8179 38.996C16.9303 39.3359 18.3207 39.7066 19.9893 40.1083C23.5118 41.0044 26.0765 42.3485 27.6832 44.1407C29.29 45.9329 30.0934 48.2503 30.0934 51.093Z" fill="#E75C25"/>
<path d="M44.1451 25.8329L44.2378 46.8753C44.2378 47.1534 44.2687 47.6787 44.3305 48.4511C44.3923 49.1927 44.5777 49.9807 44.8867 50.8149C45.2266 51.6183 45.7209 52.3445 46.3698 52.9933C47.0496 53.6113 47.992 53.9203 49.1971 53.9203C50.4022 53.9203 51.4991 53.704 52.4879 53.2714C53.5076 52.8389 54.3728 52.1745 55.0834 51.2784C55.825 50.3824 56.3967 49.2545 56.7983 47.895C57.2 46.5354 57.4009 44.9441 57.4009 43.121V25.8329H68.4319V51.0467C68.4319 52.5917 68.1229 54.0903 67.505 55.5425C66.887 56.9639 66.0372 58.2308 64.9558 59.3432C63.9052 60.4555 62.6692 61.3516 61.2478 62.0314C59.8574 62.7112 58.3742 63.0511 56.7983 63.0511H44.6549C42.8319 63.0511 41.2096 62.7112 39.7883 62.0314C38.3978 61.3516 37.2082 60.4555 36.2194 59.3432C35.2306 58.2308 34.4736 56.9639 33.9483 55.5425C33.4539 54.0903 33.2067 52.5917 33.2067 51.0467L33.114 25.8329H44.1451Z" fill="#E75C25"/>
<path d="M74.6094 80.8954H74.563V26.0182H84.7135V32.1363C85.0843 31.611 85.5168 31.0857 86.0112 30.5604C86.5365 30.0352 87.0618 29.5408 87.5871 29.0773C88.1433 28.6138 88.684 28.1967 89.2093 27.8259C89.7655 27.4551 90.2753 27.1461 90.7388 26.8989C92.9018 25.7865 95.2656 25.2303 97.8302 25.2303C103.052 25.2303 107.146 27.007 110.113 30.5604C113.048 34.0521 114.516 38.8106 114.516 44.8359C114.516 50.3978 113.048 54.8473 110.113 58.1844C108.63 59.9148 106.915 61.1662 104.968 61.9387C103.052 62.7112 100.858 63.1438 98.3864 63.2365C97.9538 63.2674 97.5367 63.2674 97.135 63.2365C96.7333 63.2365 96.3316 63.2056 95.9299 63.1438H95.8836H95.6982L95.0029 63.0047C94.9411 63.0047 94.8948 62.9893 94.8639 62.9584C94.833 62.9584 94.7866 62.9584 94.7248 62.9584C94.2922 62.8348 93.8597 62.6957 93.4271 62.5412C92.9945 62.4176 92.5464 62.2477 92.0829 62.0314C91.5268 61.7842 90.9551 61.4598 90.368 61.0581C89.8118 60.6564 89.2557 60.2083 88.6995 59.7139C88.6068 59.6521 88.4986 59.5749 88.375 59.4822C88.2823 59.3586 88.1896 59.2505 88.0969 59.1578C87.9733 59.0651 87.8497 58.9724 87.7261 58.8797C87.6334 58.7561 87.5253 58.6325 87.4017 58.5089C87.309 58.4162 87.2163 58.3235 87.1236 58.2308C87.0309 58.1072 86.9382 57.9836 86.8455 57.86C86.7219 57.7055 86.5983 57.5664 86.4747 57.4428C86.3511 57.2884 86.2275 57.1339 86.1039 56.9794C86.073 58.7715 86.0576 60.3937 86.0576 61.846V67.0834C86.0576 68.1958 85.8413 69.3082 85.4087 70.4206C85.007 71.5638 84.4663 72.6453 83.7865 73.665C83.1067 74.6847 82.3497 75.6271 81.5154 76.4923C80.6811 77.3884 79.8314 78.1608 78.9662 78.8097C78.1319 79.4586 77.3285 79.9684 76.556 80.3392C75.7836 80.71 75.1347 80.8954 74.6094 80.8954ZM88.5141 36.7712C86.9073 38.6252 86.1039 40.989 86.1039 43.8626C86.1039 45.593 86.3048 47.107 86.7065 48.4048C87.0773 49.4863 87.6334 50.5214 88.375 51.5102C89.7964 53.4877 91.8203 54.4765 94.4467 54.4765C96.9496 54.4765 98.9426 53.5804 100.426 51.7883C101.909 49.9961 102.651 47.6014 102.651 44.6042C102.651 41.3598 101.924 38.8106 100.472 36.9566C99.0198 35.0099 97.0268 34.0366 94.4931 34.0366C92.1447 34.0366 90.1517 34.9482 88.5141 36.7712Z" fill="#652B88"/>
<path d="M141.479 62.1704V56.1451C140.861 56.9485 140.243 57.69 139.625 58.3698C139.099 58.9569 138.528 59.544 137.91 60.1311C137.323 60.6873 136.766 61.1044 136.241 61.3825C134.202 62.4949 131.962 63.0511 129.521 63.0511C125.318 63.0511 122.028 62.0159 119.648 59.9457C117.269 57.9063 116.079 55.249 116.079 51.9737C116.079 47.9877 117.655 44.9286 120.807 42.7966C122.383 41.746 124.299 40.9426 126.554 40.3864C128.841 39.7993 131.483 39.5212 134.48 39.5521L140.135 39.6448C140.011 38.7488 139.748 37.8836 139.347 37.0493C139.099 36.5858 138.759 36.1223 138.327 35.6588C137.925 35.1953 137.415 34.7473 136.797 34.3147C136.705 34.2529 136.612 34.1911 136.519 34.1293C136.427 34.0675 136.334 34.0057 136.241 33.9439C136.118 33.8821 135.994 33.8203 135.87 33.7585C135.747 33.6658 135.608 33.5886 135.453 33.5268C135.237 33.465 135.021 33.4032 134.804 33.3414C134.588 33.2796 134.341 33.2178 134.063 33.156H133.785C133.568 33.1251 133.352 33.1096 133.136 33.1096C132.92 33.0787 132.657 33.0633 132.348 33.0633C131.297 33.0633 130.247 33.156 129.196 33.3414C128.176 33.4959 127.126 33.7431 126.044 34.083C124.963 34.4229 123.943 34.8246 122.985 35.288C122.028 35.7206 121.162 36.2305 120.39 36.8176V28.0576C121.935 27.2233 123.99 26.5435 126.554 26.0182C127.883 25.7402 129.196 25.5239 130.494 25.3694C131.792 25.2149 133.089 25.1376 134.387 25.1376H139.764C141.556 25.1376 143.178 25.4775 144.63 26.1573C146.114 26.8062 147.38 27.6868 148.431 28.7992C149.482 29.9116 150.285 31.1939 150.841 32.6462C151.397 34.0675 151.675 35.5352 151.675 37.0493V43.3064H151.629L151.675 62.1704H141.479ZM140.969 45.6239C140.598 45.7784 139.995 45.8556 139.161 45.8556C138.729 45.8556 138.234 45.8711 137.678 45.902C137.153 45.902 136.566 45.902 135.917 45.902C132.796 45.9947 130.525 46.4427 129.103 47.2461C127.62 48.1422 126.879 49.409 126.879 51.0467C126.879 52.3136 127.373 53.3178 128.362 54.0594C129.32 54.801 130.726 55.1717 132.58 55.1717C135.082 55.1717 137.106 54.2448 138.651 52.3908C140.196 50.5678 140.969 48.6056 140.969 46.5045V45.6239Z" fill="#652B88"/>
<path d="M151.746 26.0182H164.817L170.657 52.1127H170.796L177.053 26.0182H192.116L198.234 52.1127H198.373L204.074 26.0182H216.171L205.094 62.2631H190.587L184.422 36.0296H184.283L177.424 62.2631H162.87L151.746 26.0182Z" fill="#652B88"/>
<path d="M99.7662 69.1965V81.4365H101.926V77.8545H104.068C105.616 77.8545 106.858 77.4585 107.794 76.6485C108.748 75.8385 109.216 74.7585 109.216 73.4265C109.216 72.1485 108.766 71.1405 107.884 70.3665C107.002 69.5925 105.832 69.1965 104.374 69.1965H99.7662ZM101.926 75.8745V71.1945H104.302C105.958 71.1945 107.074 72.0765 107.074 73.4265C107.074 74.8845 105.958 75.8745 104.302 75.8745H101.926ZM120.141 72.9225H118.071V73.5165C117.333 72.9945 116.469 72.7245 115.461 72.7245C114.273 72.7245 113.265 73.1565 112.419 74.0385C111.591 74.9025 111.177 75.9465 111.177 77.1885C111.177 78.4305 111.591 79.4745 112.419 80.3385C113.265 81.2025 114.273 81.6345 115.461 81.6345C116.469 81.6345 117.333 81.3645 118.071 80.8425V81.4365H120.141V72.9225ZM115.767 79.8345C115.047 79.8345 114.453 79.5825 113.967 79.0605C113.481 78.5385 113.247 77.9085 113.247 77.1885C113.247 76.4685 113.481 75.8385 113.967 75.3165C114.453 74.7945 115.047 74.5245 115.767 74.5245C116.757 74.5245 117.531 74.9205 118.071 75.7305V78.6285C117.531 79.4385 116.757 79.8345 115.767 79.8345ZM125.683 72.9225H123.595V81.4365H125.683V76.1445C126.421 75.2445 127.447 74.7765 128.779 74.7225V72.7605C127.519 72.7605 126.493 73.1745 125.683 74.0025V72.9225ZM137.619 79.5645C137.097 79.7085 136.629 79.7805 136.179 79.7805C135.099 79.7805 134.559 79.2405 134.559 78.1605V74.6685H137.709V72.9225H134.559V69.8085H132.489V72.9225H130.545V74.6685H132.489V78.1605C132.489 80.3385 133.749 81.7065 135.783 81.7065C136.413 81.7065 137.115 81.5805 137.907 81.3465L137.619 79.5645ZM145.428 72.6525C144.456 72.6525 143.574 72.9765 142.8 73.6245V72.9225H140.712V81.4365H142.8V75.7665C143.466 74.9565 144.204 74.5425 144.996 74.5425C146.292 74.5425 147.084 75.3705 147.084 76.8645V81.4365H149.154V76.7385C149.154 75.4965 148.812 74.5065 148.128 73.7685C147.444 73.0305 146.544 72.6525 145.428 72.6525ZM160.609 77.0445C160.591 75.7665 160.195 74.7405 159.403 73.9305C158.629 73.1205 157.639 72.7245 156.451 72.7245C155.101 72.7245 154.021 73.1565 153.175 74.0025C152.347 74.8485 151.933 75.9105 151.933 77.1885C151.933 78.4665 152.347 79.5285 153.175 80.3745C154.021 81.2205 155.101 81.6345 156.451 81.6345C158.395 81.6345 159.961 80.6445 160.447 79.0785H158.233C157.927 79.6005 157.351 79.8705 156.505 79.8705C155.137 79.8705 154.291 79.1325 154.021 77.9985H160.537H160.555C160.591 77.7825 160.609 77.4585 160.609 77.0445ZM156.343 74.4885C157.567 74.4885 158.341 75.2265 158.503 76.4505H154.003C154.237 75.2805 155.065 74.4885 156.343 74.4885ZM165.56 72.9225H163.472V81.4365H165.56V76.1445C166.298 75.2445 167.324 74.7765 168.656 74.7225V72.7605C167.396 72.7605 166.37 73.1745 165.56 74.0025V72.9225ZM185.34 78.7185L186.492 81.4365H188.778L183.432 69.1245H181.416L176.034 81.4365H178.356L179.49 78.7185H185.34ZM184.512 76.7205H180.336L182.406 71.7525L184.512 76.7205ZM196.06 72.7245C195.052 72.7245 194.188 72.9945 193.468 73.5165V72.9225H191.38V85.7025H193.468V80.8425C194.188 81.3645 195.052 81.6345 196.06 81.6345C197.248 81.6345 198.256 81.2025 199.084 80.3385C199.93 79.4745 200.344 78.4305 200.344 77.1885C200.344 75.9465 199.912 74.9025 199.084 74.0385C198.238 73.1565 197.248 72.7245 196.06 72.7245ZM195.754 79.8345C194.764 79.8345 194.008 79.4385 193.468 78.6465V75.7125C194.008 74.9205 194.764 74.5245 195.754 74.5245C196.474 74.5245 197.068 74.7945 197.554 75.3165C198.04 75.8385 198.274 76.4505 198.274 77.1885C198.274 77.9085 198.04 78.5385 197.554 79.0605C197.068 79.5825 196.474 79.8345 195.754 79.8345ZM208.064 72.7245C207.056 72.7245 206.192 72.9945 205.472 73.5165V72.9225H203.384V85.7025H205.472V80.8425C206.192 81.3645 207.056 81.6345 208.064 81.6345C209.252 81.6345 210.26 81.2025 211.088 80.3385C211.934 79.4745 212.348 78.4305 212.348 77.1885C212.348 75.9465 211.916 74.9025 211.088 74.0385C210.242 73.1565 209.252 72.7245 208.064 72.7245ZM207.758 79.8345C206.768 79.8345 206.012 79.4385 205.472 78.6465V75.7125C206.012 74.9205 206.768 74.5245 207.758 74.5245C208.478 74.5245 209.072 74.7945 209.558 75.3165C210.044 75.8385 210.278 76.4505 210.278 77.1885C210.278 77.9085 210.044 78.5385 209.558 79.0605C209.072 79.5825 208.478 79.8345 207.758 79.8345Z" fill="black"/>
</svg>